<?xml version="1.0" encoding="utf-8"?>
<!-- Generator: Adobe Illustrator 27.2.0, SVG Export Plug-In . SVG Version: 6.00 Build 0)  -->
<svg version="1.1" xmlns="http://www.w3.org/2000/svg" xmlns:xlink="http://www.w3.org/1999/xlink" x="0px" y="0px"
	 viewBox="0 0 360 360" style="enable-background:new 0 0 360 360;" xml:space="preserve">
<style type="text/css">
	.st0{display:none;}
	.st1{display:inline;fill:#9A2929;}
	.st2{fill:#F2F2F3;}
	.st3{fill:#EDBC31;}
</style>
<g id="Layer_2" class="st0">
	<rect class="st1" width="360" height="360"/>
</g>
<g id="Layer_1">
	<g>
		<path class="st2" d="M360,180C360,80.6,279.4,0,180,0S0,80.6,0,180c0,89.8,65.8,164.3,151.9,177.8V232h-45.7v-52h45.7v-39.7
			c0-45.1,26.9-70,68-70c19.7,0,40.3,3.5,40.3,3.5v44.3h-22.7c-22.4,0-29.3,13.9-29.3,28.1V180H258l-8,52h-41.9v125.8
			C294.2,344.3,360,269.8,360,180z"/>
		<path class="st3" d="M250.1,232l8-52h-49.9v-33.8c0-14.2,7-28.1,29.3-28.1h22.7V73.8c0,0-20.6-3.5-40.3-3.5c-41.1,0-68,24.9-68,70
			V180h-45.7v52h45.7v125.8c9.2,1.4,18.6,2.2,28.1,2.2s19-0.7,28.1-2.2V232H250.1z"/>
	</g>
</g>
</svg>
