<?xml version="1.0" encoding="utf-8"?>
<!-- Generator: Adobe Illustrator 27.2.0, SVG Export Plug-In . SVG Version: 6.00 Build 0)  -->
<svg version="1.1" xmlns="http://www.w3.org/2000/svg" xmlns:xlink="http://www.w3.org/1999/xlink" x="0px" y="0px"
	 viewBox="0 0 392.74 341.33" style="enable-background:new 0 0 392.74 341.33;" xml:space="preserve">
<style type="text/css">
	.st0{display:none;}
	.st1{fill:#F2C715;}
</style>
<g id="BG_1_" class="st0">
</g>
<g id="graphics">
	<g>
		<g>
			<path class="st1" d="M114.47,111.82c-1.1,1.83,0.38,3.6,2.08,3.56c1.23-0.03,2.5,0.14,3.77,0.53c1.27,0.39,2.42,0.96,3.42,1.66
				c1.39,0.98,3.6,0.34,3.72-1.8c0.2-3.85-1.58-7.23-4.61-8.15C119.81,106.7,116.45,108.51,114.47,111.82z"/>
			<path class="st1" d="M241.83,118.73c1.15-0.44,2.41-0.71,3.73-0.77c1.32-0.06,2.6,0.09,3.78,0.41c1.64,0.45,3.51-0.9,2.89-2.94
				c-1.11-3.7-3.92-6.27-7.09-6.12c-3.17,0.15-5.72,2.99-6.47,6.77C238.25,118.17,240.24,119.34,241.83,118.73z"/>
			<path class="st1" d="M289.29,266.63c1.83-2.86,2.77-6.16,2.77-9.45c0-9.42-7.33-17.94-20.24-18.81c-0.18-0.05-0.37-0.08-0.56-0.1
				c-17.27-17.71-25.18-60.6-20.49-86.37c15.71-1.23,26.76-10.46,30.89-26.21c1.82-6.97-1.41-12.34-8.11-13.61
				c-3.29-0.63-5.47-2.58-6.67-5.96c-0.04-0.11-0.08-0.21-0.13-0.32c-6.34-14.05-17.31-15.79-24.58-16.43c0-0.03,0.03-0.08,0-0.08
				c-2.63,0.15-5.89,0.14-4.15-1.79c4.64-5.15,5.46-7.58,5.99-9.46c1.18-4.14-3.21-6.84-6.5-6.3
				c-18.06,2.98-35.77,19.12-45.13,40.99c-1.22,2.86-3.3,7.76-5.9,14.06c-3.3-7.93-10.03-27.05-29.41-37.12
				c-8.54-4.44-16.93-5.83-25.7-5.28c-7.32,0.45-22.54,1.37-30.74,19.76c-0.25,0.25-2.25,1.94-10.89,2.87
				c-5.3,0.57-10.21,0.52-10.26,0.52c-0.02,0-0.03,0-0.05,0c-2.29,0-4.17,1.85-4.2,4.15c-0.31,23.83,10.44,34.21,18.49,38.64
				c0.01,0.01,0.02,0.01,0.03,0.02c4.85,2.92,10.98,3.61,16.67,3.61c3.08,0,5.89-0.2,7.99-0.41c1.58,9.96,4.51,50.26-15.44,84.85
				c-12.81,0.95-20.02,9.48-20.02,18.8c0,3.29,0.93,6.59,2.77,9.45c0,0,4.53,8.4,18.35,8.4c2.41,0,39.88,0,45.13,0
				c2.32,0,4.2-1.88,4.2-4.2c0-2.32-1.88-4.2-4.2-4.2c-5.23,0-41.92,0-46.52,0c-7.83,0-11.33-4.75-11.33-9.45
				c0-5.98,5.23-10.21,13.27-10.46c3.69,0.82,8.15,2.91,9.98,8.14c0.77,2.19,3.17,3.34,5.35,2.57c2.19-0.77,3.34-3.16,2.57-5.35
				c-1.89-5.39-5.7-9.46-10.96-11.86c18.7-34.15,17.28-73.5,15.24-86.97c-0.38-2.49-1.35-5.61-1.55-6.04
				c-0.76-1.71-2.6-2.74-4.51-2.43c-3.65,0.6-13.59,1.64-20.47-0.66c-0.2-0.07-0.39-0.14-0.58-0.21
				c-7.53-3.28-12.51-9.73-14.74-18.93c2.73-0.62,6.68-2.84,9.25-10.1c7.93-1.26,12.42-3.58,14.05-7.24
				c3.87-8.74,9.39-12.29,15.49-13.81c3.16-0.79,11.28-1.89,18.2,2.74c1.93,1.29,3.49,3.41,4.43,6.12
				c1.56,4.52,0.43,9.57-3.18,14.22c-9.37,12.06-11.73,18.2-10.87,26.2c0.55,5.04,3.29,9.18,7.74,11.64
				c6.11,3.39,14.1,3.5,20.21-0.27c6.57-4.06,10.38-11.28,12.22-23.45c0-0.02,0.01-0.04,0.01-0.07c-1.6-4.08-4.13-9.7-7.24-13.61
				c0.24,3.39,0.73,7.67-0.27,12.19c-2.01,9.09-3.28,13.65-8.39,17.36c-3.95,2.87-9.18,2.31-12.48,0.48
				c-2.05-1.13-3.21-2.88-3.46-5.2c-0.47-4.33,0.02-8.4,9.15-20.15c5.75-7.4,7.57-16.79,3.19-25.08c1.05,0.54,2.27,1.25,3.41,2.07v0
				c0,0,5.86,3.71,11.99,11.61c1.78,2.29,8.01,10.5,13.56,27.16c-12.7,31.54-31.27,81.1-31.27,101.24
				c0,19.83,16.13,35.96,35.96,35.96c19.83,0,35.96-16.13,35.96-35.96c0-10.9-6.5-34.15-19.3-69.1c-2.93-7.99-5.9-15.79-8.68-22.91
				l-4.27,12.14c11.22,29.42,23.85,66.14,23.85,79.86c0,15.2-12.36,27.56-27.56,27.56c-15.2,0-27.56-12.37-27.56-27.56
				c0-21.28,23.89-81.3,31.92-101.14c0,0,0-0.01-0.01-0.01c4.48-11.07,7.96-19.25,9.09-21.88c5.96-13.92,17.99-28.96,32.66-34.36
				c-10.96,10.49-7.03,15.99-3.02,15.99c5.42,0,6.51,0,10.86,0c6.75,0.56,13.8,1.31,18.43,11.44c1.82,4.96,5.22,8.53,9.76,10.3
				c-0.98,2.46-1.74,6.69,3.14,8.9c-3.69,8.72-11.79,16.85-29.33,15.1c-2.32-0.23-4.37,1.45-4.6,3.76c-0.23,2.31,1.45,4.37,3.76,4.6
				c0.17,0.02,0.33,0.03,0.5,0.04c-2.16,13.4-1.38,30.93,2.19,47.65c3.71,17.37,10,31.83,17.95,41.5c-4.5,2.45-7.78,6.24-9.49,11.12
				c-0.96,2.74,1.09,5.59,3.96,5.59c1.73,0,3.36-1.08,3.96-2.81c1.82-5.2,6.25-7.3,9.93-8.12c17.36,0.81,16.61,19.9,1.56,19.9
				c-7.01,0-41.31,0-48.17,0c-2.32,0-4.2,1.88-4.2,4.2c0,2.32,1.88,4.2,4.2,4.2c6.86,0,34.88,0,48.17,0
				C285.61,275.03,289.29,266.63,289.29,266.63z"/>
		</g>
	</g>
</g>
</svg>
