<?xml version="1.0" encoding="utf-8"?>
<!-- Generator: Adobe Illustrator 27.2.0, SVG Export Plug-In . SVG Version: 6.00 Build 0)  -->
<svg version="1.1" xmlns="http://www.w3.org/2000/svg" xmlns:xlink="http://www.w3.org/1999/xlink" x="0px" y="0px"
	 viewBox="0 0 1362.8 360" style="enable-background:new 0 0 1362.8 360;" xml:space="preserve">
<style type="text/css">
	.st0{display:none;}
	.st1{display:inline;fill:#9A2929;}
	.st2{fill:#F2F2F3;}
	.st3{fill:#EDBC31;}
	.st4{fill-rule:evenodd;clip-rule:evenodd;fill:#F2F2F3;}
</style>
<g id="Layer_2" class="st0">
	<rect class="st1" width="360" height="360"/>
</g>
<g id="Layer_1">
	<g>
		<path class="st2" d="M416.7,179.9c0-99.4-80.6-180-180-180s-180,80.6-180,180c0,89.8,65.8,164.3,151.9,177.8V231.9h-45.7v-52h45.7
			v-39.7c0-45.1,26.9-70,68-70c19.7,0,40.3,3.5,40.3,3.5V118h-22.7c-22.4,0-29.3,13.9-29.3,28.1v33.8h49.9l-8,52h-41.9v125.8
			C350.8,344.2,416.7,269.7,416.7,179.9z"/>
		<path class="st3" d="M306.7,231.9l8-52h-49.9v-33.8c0-14.2,7-28.1,29.3-28.1h22.7V73.7c0,0-20.6-3.5-40.3-3.5
			c-41.1,0-68,24.9-68,70v39.7h-45.7v52h45.7v125.8c9.2,1.4,18.6,2.2,28.1,2.2s19-0.7,28.1-2.2V231.9H306.7z"/>
	</g>
	<g>
		<circle class="st2" cx="681.4" cy="179.9" r="180"/>
		<g>
			<g>
				<path class="st3" d="M681.4,87c30.3,0,33.8,0.1,45.8,0.7c11,0.5,17.1,2.4,21,3.9c5.3,2.1,9.1,4.5,13,8.5c4,4,6.4,7.7,8.5,13
					c1.6,4,3.4,10,3.9,21c0.5,12,0.7,15.5,0.7,45.8s-0.1,33.8-0.7,45.8c-0.5,11-2.4,17.1-3.9,21c-2.1,5.3-4.5,9.1-8.5,13
					c-4,4-7.7,6.4-13,8.5c-4,1.6-10,3.4-21,3.9c-11.9,0.5-15.5,0.7-45.8,0.7c-30.3,0-33.8-0.1-45.8-0.7c-11-0.5-17.1-2.4-21-3.9
					c-5.3-2.1-9.1-4.5-13-8.5c-4-4-6.4-7.7-8.5-13c-1.6-4-3.4-10-3.9-21c-0.5-12-0.7-15.5-0.7-45.8s0.1-33.8,0.7-45.8
					c0.5-11,2.4-17.1,3.9-21c2.1-5.3,4.5-9.1,8.5-13c4-4,7.7-6.4,13-8.5c4-1.6,10-3.4,21-3.9C647.5,87.1,651.1,87,681.4,87
					 M681.4,66.6c-30.8,0-34.6,0.1-46.7,0.7c-12.1,0.6-20.3,2.5-27.5,5.3c-7.5,2.9-13.8,6.8-20.1,13.1c-6.3,6.3-10.2,12.6-13.1,20.1
					c-2.8,7.2-4.7,15.4-5.3,27.5c-0.6,12.1-0.7,15.9-0.7,46.7c0,30.8,0.1,34.6,0.7,46.7c0.6,12.1,2.5,20.3,5.3,27.5
					c2.9,7.5,6.8,13.8,13.1,20.1c6.3,6.3,12.6,10.2,20.1,13.1c7.2,2.8,15.4,4.7,27.5,5.3c12.1,0.6,15.9,0.7,46.7,0.7
					c30.8,0,34.6-0.1,46.7-0.7c12.1-0.6,20.3-2.5,27.5-5.3c7.5-2.9,13.8-6.8,20.1-13.1c6.3-6.3,10.2-12.6,13.1-20.1
					c2.8-7.2,4.7-15.4,5.3-27.5c0.6-12.1,0.7-15.9,0.7-46.7s-0.1-34.6-0.7-46.7c-0.6-12.1-2.5-20.3-5.3-27.5
					c-2.9-7.5-6.8-13.8-13.1-20.1c-6.3-6.3-12.6-10.2-20.1-13.1c-7.2-2.8-15.4-4.7-27.5-5.3C716,66.7,712.2,66.6,681.4,66.6
					L681.4,66.6z"/>
				<path class="st3" d="M681.4,121.7c-32.1,0-58.2,26.1-58.2,58.2s26.1,58.2,58.2,58.2c32.1,0,58.2-26.1,58.2-58.2
					S713.5,121.7,681.4,121.7z M681.4,217.7c-20.9,0-37.8-16.9-37.8-37.8s16.9-37.8,37.8-37.8s37.8,16.9,37.8,37.8
					S702.3,217.7,681.4,217.7z"/>
				<circle class="st3" cx="741.9" cy="119.4" r="13.6"/>
			</g>
		</g>
	</g>
	<g>
		<circle class="st4" cx="1126.1" cy="179.9" r="180"/>
		<g>
			<g>
				<path class="st3" d="M1089.7,283.6c87.9,0,136-72.8,136-136c0-2.1,0-4.1-0.1-6.2c9.3-6.7,17.4-15.2,23.8-24.7
					c-8.6,3.8-17.8,6.4-27.4,7.5c9.9-5.9,17.4-15.3,21-26.4c-9.2,5.5-19.5,9.5-30.3,11.6c-8.7-9.3-21.1-15.1-34.9-15.1
					c-26.4,0-47.8,21.4-47.8,47.8c0,3.8,0.4,7.4,1.2,10.9c-39.7-2-74.9-21-98.5-49.9c-4.1,7.1-6.5,15.3-6.5,24
					c0,16.6,8.4,31.2,21.3,39.8c-7.8-0.2-15.2-2.4-21.6-6c0,0.2,0,0.4,0,0.6c0,23.2,16.5,42.5,38.3,46.9c-4,1.1-8.2,1.7-12.6,1.7
					c-3.1,0-6.1-0.3-9-0.9c6.1,19,23.7,32.8,44.7,33.2c-16.4,12.8-37,20.5-59.4,20.5c-3.9,0-7.7-0.2-11.4-0.7
					C1037.6,275.7,1062.7,283.6,1089.7,283.6"/>
			</g>
		</g>
	</g>
</g>
</svg>
