<?xml version="1.0" encoding="utf-8"?>
<!-- Generator: Adobe Illustrator 27.2.0, SVG Export Plug-In . SVG Version: 6.00 Build 0)  -->
<svg version="1.1" id="Layer_1" xmlns="http://www.w3.org/2000/svg" xmlns:xlink="http://www.w3.org/1999/xlink" x="0px" y="0px"
	 viewBox="0 0 397 360" style="enable-background:new 0 0 397 360;" xml:space="preserve">
<style type="text/css">
	.st0{display:none;}
	.st1{display:inline;fill:#9A2929;}
	.st2{fill-rule:evenodd;clip-rule:evenodd;fill:#F2F2F3;}
	.st3{fill:#EDBC31;}
</style>
<g id="Layer_2_00000016765315608954301800000006888617368068047023_" class="st0">
	<rect x="-928" class="st1" width="360" height="360"/>
</g>
<g>
	<circle class="st2" cx="198.1" cy="179.9" r="180"/>
	<g>
		<g>
			<path class="st3" d="M161.7,283.6c87.9,0,136-72.8,136-136c0-2.1,0-4.1-0.1-6.2c9.3-6.7,17.4-15.2,23.8-24.7
				c-8.6,3.8-17.8,6.4-27.4,7.5c9.9-5.9,17.4-15.3,21-26.4c-9.2,5.5-19.5,9.5-30.3,11.6c-8.7-9.3-21.1-15.1-34.9-15.1
				c-26.4,0-47.8,21.4-47.8,47.8c0,3.8,0.4,7.4,1.2,10.9c-39.7-2-74.9-21-98.5-49.9c-4.1,7.1-6.5,15.3-6.5,24
				c0,16.6,8.4,31.2,21.3,39.8c-7.8-0.2-15.2-2.4-21.6-6c0,0.2,0,0.4,0,0.6c0,23.2,16.5,42.5,38.3,46.9c-4,1.1-8.2,1.7-12.6,1.7
				c-3.1,0-6.1-0.3-9-0.9c6.1,19,23.7,32.8,44.7,33.2c-16.4,12.8-37,20.5-59.4,20.5c-3.9,0-7.7-0.2-11.4-0.7
				C109.6,275.7,134.7,283.6,161.7,283.6"/>
		</g>
	</g>
</g>
</svg>
