<?xml version="1.0" encoding="utf-8"?>
<!-- Generator: Adobe Illustrator 27.2.0, SVG Export Plug-In . SVG Version: 6.00 Build 0)  -->
<svg version="1.1" id="Layer_1" xmlns="http://www.w3.org/2000/svg" xmlns:xlink="http://www.w3.org/1999/xlink" x="0px" y="0px"
	 viewBox="0 0 400 360" style="enable-background:new 0 0 400 360;" xml:space="preserve">
<style type="text/css">
	.st0{display:none;}
	.st1{display:inline;fill:#9A2929;}
	.st2{fill:#F2F2F3;}
	.st3{fill:#EDBC31;}
</style>
<g id="Layer_2_00000016765315608954301800000006888617368068047023_" class="st0">
	<rect x="-481" class="st1" width="360" height="360"/>
</g>
<g>
	<circle class="st2" cx="200.4" cy="179.9" r="180"/>
	<g>
		<g>
			<path class="st3" d="M200.4,87c30.3,0,33.8,0.1,45.8,0.7c11,0.5,17.1,2.4,21,3.9c5.3,2.1,9.1,4.5,13,8.5c4,4,6.4,7.7,8.5,13
				c1.6,4,3.4,10,3.9,21c0.5,12,0.7,15.5,0.7,45.8s-0.1,33.8-0.7,45.8c-0.5,11-2.4,17.1-3.9,21c-2.1,5.3-4.5,9.1-8.5,13
				c-4,4-7.7,6.4-13,8.5c-4,1.6-10,3.4-21,3.9c-11.9,0.5-15.5,0.7-45.8,0.7s-33.8-0.1-45.8-0.7c-11-0.5-17.1-2.4-21-3.9
				c-5.3-2.1-9.1-4.5-13-8.5c-4-4-6.4-7.7-8.5-13c-1.6-4-3.4-10-3.9-21c-0.5-12-0.7-15.5-0.7-45.8s0.1-33.8,0.7-45.8
				c0.5-11,2.4-17.1,3.9-21c2.1-5.3,4.5-9.1,8.5-13c4-4,7.7-6.4,13-8.5c4-1.6,10-3.4,21-3.9C166.5,87.1,170.1,87,200.4,87
				 M200.4,66.6c-30.8,0-34.6,0.1-46.7,0.7c-12.1,0.6-20.3,2.5-27.5,5.3c-7.5,2.9-13.8,6.8-20.1,13.1C99.8,92,95.9,98.3,93,105.8
				c-2.8,7.2-4.7,15.4-5.3,27.5C87.1,145.4,87,149.2,87,180s0.1,34.6,0.7,46.7c0.6,12.1,2.5,20.3,5.3,27.5
				c2.9,7.5,6.8,13.8,13.1,20.1c6.3,6.3,12.6,10.2,20.1,13.1c7.2,2.8,15.4,4.7,27.5,5.3c12.1,0.6,15.9,0.7,46.7,0.7
				s34.6-0.1,46.7-0.7c12.1-0.6,20.3-2.5,27.5-5.3c7.5-2.9,13.8-6.8,20.1-13.1c6.3-6.3,10.2-12.6,13.1-20.1
				c2.8-7.2,4.7-15.4,5.3-27.5s0.7-15.9,0.7-46.7s-0.1-34.6-0.7-46.7c-0.6-12.1-2.5-20.3-5.3-27.5c-2.9-7.5-6.8-13.8-13.1-20.1
				c-6.3-6.3-12.6-10.2-20.1-13.1c-7.2-2.8-15.4-4.7-27.5-5.3C235,66.7,231.2,66.6,200.4,66.6L200.4,66.6z"/>
			<path class="st3" d="M200.4,121.7c-32.1,0-58.2,26.1-58.2,58.2s26.1,58.2,58.2,58.2c32.1,0,58.2-26.1,58.2-58.2
				S232.5,121.7,200.4,121.7z M200.4,217.7c-20.9,0-37.8-16.9-37.8-37.8s16.9-37.8,37.8-37.8s37.8,16.9,37.8,37.8
				S221.3,217.7,200.4,217.7z"/>
			<circle class="st3" cx="260.9" cy="119.4" r="13.6"/>
		</g>
	</g>
</g>
</svg>
